<svg width="40" height="40" viewBox="0 0 40 40" fill="none" xmlns="http://www.w3.org/2000/svg">
<path d="M0.922852 19.9991V8.61454C11.1793 8.30685 32.0613 8.61454 33.5382 8.61454C35.0152 8.61454 36.8203 11.0761 37.5382 12.3068L38.4613 13.8453L38.1536 25.5376C37.7434 27.2812 33.6613 31.1376 20.6152 32.6145C7.569 34.0915 5.33311 31.9991 5.84593 30.7684C5.59977 24.1222 2.46131 20.8197 0.922852 19.9991Z" stroke="#545454" stroke-width="0.615385"/>
<path d="M0.922852 11.6926L9.84593 14.4619L19.6921 16.0003C19.7946 15.385 20.1844 14.1542 20.9229 14.1542C21.8459 14.1542 23.6921 14.1542 24.3075 14.1542C24.9229 14.1542 22.1536 12.9234 27.0767 13.5388C27.2818 13.1285 28.5536 12.4311 31.9998 12.9234C31.7946 12.7183 32.3075 12.308 35.9998 12.308L31.9998 8.61572" stroke="#545454" stroke-width="0.615385"/>
<path d="M8.92334 8.61572C11.59 9.23111 17.7233 11.1388 20.9233 13.8465" stroke="#545454" stroke-width="0.615385"/>
<path d="M5.23071 13.2312C5.33328 14.1543 6.27687 16.2466 9.23071 17.2312" stroke="#545454" stroke-width="0.615385"/>
<path d="M10.1538 14.4617C10.2564 15.2822 10.7692 16.9232 12 16.9232C13.2307 16.9232 14.7692 16.9232 15.3846 16.9232C16.6153 16.7181 19.323 16.6771 20.3077 18.154C21.2923 19.6309 21.5384 23.4873 21.5384 25.2309C21.9487 25.436 22.8923 25.7232 23.3846 25.2309C24 24.6155 24.923 26.154 25.2307 25.2309C25.5384 24.3078 27.0769 24.9232 27.3846 24.3078C27.6923 23.6924 28.923 24.9232 29.8461 24.3078C30.7692 23.6924 30.4615 23.3847 31.6923 23.3847C32.923 23.3847 32.6153 22.7694 33.2307 22.7694C33.8461 22.7694 34.7692 23.3847 35.3846 22.7694C35.8769 22.2771 36.6153 21.9488 36.923 21.8463H38.1538" stroke="#545454" stroke-width="0.615385"/>
<path d="M11.6925 17.8459C13.8464 17.7434 18.2156 17.7844 18.4617 18.769C18.7079 19.7536 18.7694 26.5639 18.7694 29.8459C19.2822 30.1536 20.3694 30.769 20.6156 30.769C20.9233 30.769 21.5387 32.3075 22.154 32.3075" stroke="#545454" stroke-width="0.615385"/>
<rect x="8.61511" y="16.615" width="3.69231" height="2.46154" rx="0.615385" fill="#545454"/>
<path d="M20 15.9994H22.4615C22.9744 15.7943 24.3077 15.384 25.5385 15.384C27.0769 15.384 26.4615 14.461 27.3846 14.7687C28.3077 15.0764 30.4615 14.7687 31.3846 14.7687C32.3077 14.7687 32.6154 13.8456 33.8462 14.1533C35.0769 14.461 35.6923 13.8456 36 13.5379C36.2462 13.2917 36.3077 12.6148 36.3077 12.3071" stroke="#545454" stroke-width="0.615385"/>
<path d="M19.6924 17.2311H22.479C23.0596 17.026 24.569 16.6157 25.9623 16.6157C27.704 16.6157 27.0073 15.6927 28.0523 16.0004C29.0973 16.308 31.5356 16.0004 32.5806 16.0004C33.6256 16.0004 33.974 15.0773 35.3673 15.385C36.7606 15.6927 37.4573 15.0773 37.8056 14.7696C38.0843 14.5234 38.1539 13.8465 38.1539 13.5388" stroke="#545454" stroke-width="0.615385"/>
<path d="M20.3076 18.4616H22.9085C23.4503 18.2565 24.8591 17.8462 26.1596 17.8462C27.7851 17.8462 27.1349 16.9231 28.1102 17.2308C29.0856 17.5385 31.3613 17.2308 32.3366 17.2308C33.312 17.2308 33.6371 16.3077 34.9375 16.6154C36.238 16.9231 36.8882 16.3077 37.2133 16.0001C37.4734 15.7539 37.5384 15.077 37.5384 14.7693" stroke="#545454" stroke-width="0.615385"/>
<path d="M20.9229 19.6921H23.5237C24.0656 19.4869 25.4744 19.0767 26.7748 19.0767C28.4004 19.0767 27.7501 18.1536 28.7255 18.4613C29.7008 18.769 31.9766 18.4613 32.9519 18.4613C33.9272 18.4613 34.2523 17.5382 35.5528 17.8459C36.8532 18.1536 37.5034 17.5382 37.8285 17.2305C38.0886 16.9844 38.1536 16.3074 38.1536 15.9998" stroke="#545454" stroke-width="0.615385"/>
<path d="M20.9229 20.9225H23.5237C24.0656 20.7174 25.4744 20.3071 26.7748 20.3071C28.4004 20.3071 27.7501 19.3841 28.7255 19.6918C29.7008 19.9995 31.9766 19.6918 32.9519 19.6918C33.9272 19.6918 34.2523 18.7687 35.5528 19.0764C36.8532 19.3841 37.5034 18.7687 37.8285 18.461C38.0886 18.2148 38.1536 17.5379 38.1536 17.2302" stroke="#545454" stroke-width="0.615385"/>
<path d="M21.5387 22.1542H24.0467C24.5692 21.9491 25.9277 21.5388 27.1817 21.5388C28.7491 21.5388 28.1222 20.6158 29.0626 20.9235C30.0031 21.2311 32.1976 20.9235 33.1381 20.9235C34.0786 20.9235 34.3921 20.0004 35.6461 20.3081C36.9001 20.6158 37.5271 20.0004 37.8406 19.6927C38.0914 19.4465 38.1541 18.7696 38.1541 18.4619" stroke="#545454" stroke-width="0.615385"/>
<path d="M21.5387 23.3847H24.0467C24.5692 23.1796 25.9277 22.7693 27.1817 22.7693C28.7491 22.7693 28.1222 21.8462 29.0626 22.1539C30.0031 22.4616 32.1976 22.1539 33.1381 22.1539C34.0786 22.1539 34.3921 21.2308 35.6461 21.5385C36.9001 21.8462 37.5271 21.2308 37.8406 20.9232C38.0914 20.677 38.1541 20.0001 38.1541 19.6924" stroke="#545454" stroke-width="0.615385"/>
<path d="M33.5272 16.9921C33.534 17.0616 33.5122 17.1538 33.4208 17.2706C33.3281 17.3892 33.175 17.5168 32.9588 17.6392C32.5271 17.8836 31.8951 18.0782 31.1665 18.149C30.438 18.2198 29.7804 18.1507 29.3096 17.994C29.0739 17.9155 28.8991 17.8198 28.7853 17.7213C28.6731 17.6242 28.634 17.5379 28.6272 17.4684C28.6205 17.3989 28.6422 17.3067 28.7336 17.1899C28.8263 17.0713 28.9794 16.9437 29.1957 16.8213C29.6274 16.5769 30.2594 16.3823 30.9879 16.3115C31.7164 16.2407 32.3741 16.3099 32.8448 16.4665C33.0806 16.545 33.2554 16.6407 33.3692 16.7392C33.4814 16.8363 33.5205 16.9226 33.5272 16.9921Z" fill="white" stroke="#545454" stroke-width="0.615385"/>
<path d="M8.61511 24.0001V19.6924H15.3843V25.5385C15.3843 26.277 14.1536 27.077 13.5382 27.3847C11.692 27.4873 8.18434 27.4462 8.9228 26.4616C9.66127 25.477 9.02537 24.4103 8.61511 24.0001Z" stroke="#545454" stroke-width="0.615385"/>
<path d="M10.1538 20V26.1538" stroke="#545454" stroke-width="0.615385"/>
<path d="M11.6925 27.3846V21.2307C12.2053 20.7179 13.231 19.9384 13.231 20.923C13.231 22.1538 14.7694 25.2307 13.5387 25.2307" stroke="#545454" stroke-width="0.615385"/>
<path d="M19.0771 28.3077C20.1028 28.4103 22.1541 28.4308 22.1541 27.6923C22.1541 26.9539 24.2054 27.1795 25.231 27.3846L26.4618 26.7692V24.9231" stroke="#545454" stroke-width="0.615385"/>
<path d="M20.6152 30.1542C20.8204 29.744 21.4768 29.0465 22.4614 29.5389C23.6922 30.1542 24.6152 28.3081 25.2306 28.6158C25.846 28.9235 26.1537 28.9235 26.4614 28.6158C26.7691 28.3081 27.9999 26.7696 28.6152 26.7696C29.2306 26.7696 30.7691 27.6927 30.7691 26.7696C30.7691 25.8465 31.3845 26.1542 31.9999 25.8465C32.6152 25.5389 33.5383 25.8465 34.1537 25.2312C34.7691 24.6158 35.0768 24.6158 35.9999 24.3081C36.7383 24.0619 37.3332 23.7953 37.5383 23.6927L38.1537 23.385" stroke="#545454" stroke-width="0.615385"/>
<path d="M21.5387 31.9999C21.733 31.5897 22.3549 30.8923 23.2877 31.3846C24.4537 31.9999 25.3282 30.1538 25.9112 30.4615C26.4942 30.7692 26.7857 30.7692 27.0772 30.4615C27.3687 30.1538 28.5346 28.6153 29.1176 28.6153C29.7006 28.6153 31.1581 29.5384 31.1581 28.6153C31.1581 27.6923 31.7411 27.9999 32.3241 27.6923C32.9071 27.3846 33.7816 27.6923 34.3646 27.0769C34.9476 26.4615 35.2391 26.4615 36.1136 26.1538C36.8132 25.9076 37.3768 25.641 37.5711 25.5384L38.1541 25.2307" stroke="#545454" stroke-width="0.615385"/>
<path d="M30.1538 16.6157C30.4615 17.2311 30.1538 18.1542 30.1538 18.1542C30.1538 18.1542 31.3846 17.2311 31.6923 16.6157C32 16.0003 31.6923 18.1542 31.6923 18.1542" stroke="#545454" stroke-width="0.615385"/>
</svg>
