<svg width="40" height="40" viewBox="0 0 40 40" fill="none" xmlns="http://www.w3.org/2000/svg">
<g clip-path="url(#clip0_36_8649)">
<mask id="path-1-inside-1_36_8649" fill="white">
<path fill-rule="evenodd" clip-rule="evenodd" d="M14.1284 27.4305C14.1284 29.5755 12.3895 31.3145 10.2445 31.3145L8.69088 31.3145C6.54583 31.3145 4.80693 29.5755 4.80693 27.4305L4.80693 25.9257C4.13679 25.7533 3.6416 25.145 3.6416 24.421C3.6416 24.2065 3.81549 24.0326 4.03 24.0326L4.80693 24.0326L4.80693 15.7786C4.80693 14.7061 5.67638 13.8367 6.7489 13.8367L12.1864 13.8367C13.259 13.8367 14.1284 14.7061 14.1284 15.7786L14.1284 24.0326L14.9051 24.0326C15.1196 24.0326 15.2935 24.2065 15.2935 24.421C15.2935 25.1449 14.7984 25.7531 14.1284 25.9256L14.1284 27.4305Z"/>
</mask>
<path d="M4.80693 25.9257L5.29242 25.9257L5.29242 25.5493L4.9279 25.4555L4.80693 25.9257ZM4.03 24.0326L4.03 24.5181L4.03 24.0326ZM4.80693 24.0326L4.80693 24.5181L5.29242 24.5181L5.29242 24.0326L4.80693 24.0326ZM4.80693 15.7786L5.29242 15.7786L4.80693 15.7786ZM14.1284 24.0326L13.6429 24.0326L13.6429 24.5181L14.1284 24.5181L14.1284 24.0326ZM14.1284 25.9256L14.0074 25.4555L13.6429 25.5493L13.6429 25.9256L14.1284 25.9256ZM10.2445 31.7999C12.6576 31.7999 14.6139 29.8437 14.6139 27.4305L13.6429 27.4305C13.6429 29.3074 12.1214 30.829 10.2445 30.829L10.2445 31.7999ZM8.69088 31.7999L10.2445 31.7999L10.2445 30.829L8.69088 30.829L8.69088 31.7999ZM4.32143 27.4305C4.32143 29.8437 6.2777 31.7999 8.69088 31.7999L8.69088 30.829C6.81396 30.829 5.29242 29.3074 5.29242 27.4305L4.32143 27.4305ZM4.32143 25.9257L4.32143 27.4305L5.29242 27.4305L5.29242 25.9257L4.32143 25.9257ZM3.15611 24.421C3.15611 25.3719 3.8065 26.1696 4.68596 26.3959L4.9279 25.4555C4.46707 25.337 4.1271 24.9181 4.1271 24.421L3.15611 24.421ZM4.03 23.5471C3.54736 23.5471 3.15611 23.9384 3.15611 24.421L4.1271 24.421C4.1271 24.4747 4.08362 24.5181 4.03 24.5181L4.03 23.5471ZM4.80693 23.5471L4.03 23.5471L4.03 24.5181L4.80693 24.5181L4.80693 23.5471ZM4.32143 15.7786L4.32143 24.0326L5.29242 24.0326L5.29242 15.7786L4.32143 15.7786ZM6.7489 13.3512C5.40825 13.3512 4.32143 14.438 4.32143 15.7786L5.29242 15.7786C5.29242 14.9742 5.94451 14.3221 6.7489 14.3221L6.7489 13.3512ZM12.1864 13.3512L6.7489 13.3512L6.7489 14.3221L12.1864 14.3221L12.1864 13.3512ZM14.6139 15.7786C14.6139 14.438 13.5271 13.3512 12.1864 13.3512L12.1864 14.3221C12.9908 14.3221 13.6429 14.9742 13.6429 15.7786L14.6139 15.7786ZM14.6139 24.0326L14.6139 15.7786L13.6429 15.7786L13.6429 24.0326L14.6139 24.0326ZM14.9051 23.5471L14.1284 23.5471L14.1284 24.5181L14.9051 24.5181L14.9051 23.5471ZM15.779 24.421C15.779 23.9384 15.3877 23.5471 14.9051 23.5471L14.9051 24.5181C14.8514 24.5181 14.808 24.4747 14.808 24.421L15.779 24.421ZM14.2495 26.3958C15.1287 26.1694 15.779 25.3718 15.779 24.421L14.808 24.421C14.808 24.918 14.4681 25.3368 14.0074 25.4555L14.2495 26.3958ZM14.6139 27.4305L14.6139 25.9256L13.6429 25.9256L13.6429 27.4305L14.6139 27.4305Z" fill="#545454" mask="url(#path-1-inside-1_36_8649)"/>
<rect x="12.1376" y="27.1879" width="5.34044" height="10.1954" rx="1.69923" transform="rotate(-180 12.1376 27.1879)" stroke="#545454" stroke-width="0.485494"/>
<path d="M11.895 24.0322L7.04008 24.0322" stroke="#545454" stroke-width="0.485494"/>
<path d="M12.1372 20.6338L7.03952 20.6338" stroke="#545454" stroke-width="0.485494"/>
<path d="M5.82617 38.5974C7.28266 37.2623 11.6521 36.4127 14.2009 38.5974" stroke="#545454" stroke-width="0.728242"/>
<path d="M4.36963 35.8022C6.26939 34.3495 11.9687 33.4251 15.2933 35.8022" stroke="#545454" stroke-width="0.728242"/>
<mask id="path-8-inside-2_36_8649" fill="white">
<path fill-rule="evenodd" clip-rule="evenodd" d="M33.7905 13.5946C33.7905 15.7396 32.0516 17.4785 29.9066 17.4785L28.353 17.4785C26.2079 17.4785 24.469 15.7396 24.469 13.5946L24.469 12.0887C23.7991 11.9161 23.3042 11.3079 23.3042 10.5841C23.3042 10.3696 23.4781 10.1957 23.6926 10.1957L24.469 10.1957L24.469 1.9427C24.469 0.870172 25.3385 0.000716322 26.411 0.000716416L31.8486 0.000716891C32.9211 0.000716985 33.7905 0.87017 33.7905 1.94269L33.7905 10.1957L34.5672 10.1957C34.7817 10.1957 34.9556 10.3696 34.9556 10.5841C34.9556 11.308 34.4605 11.9162 33.7905 12.0887L33.7905 13.5946Z"/>
</mask>
<path d="M24.469 12.0887L24.9545 12.0887L24.9545 11.7124L24.5902 11.6185L24.469 12.0887ZM23.6926 10.1957L23.6926 10.6812L23.6926 10.1957ZM24.469 10.1957L24.469 10.6812L24.9545 10.6812L24.9545 10.1957L24.469 10.1957ZM26.411 0.000716416L26.411 0.486211L26.411 0.000716416ZM31.8486 0.000716891L31.8486 -0.484777L31.8486 0.000716891ZM33.7905 1.94269L33.305 1.94269L33.7905 1.94269ZM33.7905 10.1957L33.305 10.1957L33.305 10.6812L33.7905 10.6812L33.7905 10.1957ZM33.7905 12.0887L33.6695 11.6186L33.305 11.7124L33.305 12.0887L33.7905 12.0887ZM29.9066 17.964C32.3198 17.964 34.276 16.0077 34.276 13.5946L33.305 13.5946C33.305 15.4715 31.7835 16.993 29.9066 16.993L29.9066 17.964ZM28.353 17.964L29.9066 17.964L29.9066 16.993L28.353 16.993L28.353 17.964ZM23.9835 13.5946C23.9835 16.0077 25.9398 17.964 28.353 17.964L28.353 16.993C26.4761 16.993 24.9545 15.4715 24.9545 13.5946L23.9835 13.5946ZM23.9835 12.0887L23.9835 13.5946L24.9545 13.5946L24.9545 12.0887L23.9835 12.0887ZM22.8187 10.5841C22.8187 11.5347 23.4688 12.3323 24.3479 12.5588L24.5902 11.6185C24.1295 11.4998 23.7897 11.081 23.7897 10.5841L22.8187 10.5841ZM23.6926 9.71022C23.21 9.71022 22.8187 10.1015 22.8187 10.5841L23.7897 10.5841C23.7897 10.6377 23.7462 10.6812 23.6926 10.6812L23.6926 9.71022ZM24.469 9.71022L23.6926 9.71022L23.6926 10.6812L24.469 10.6812L24.469 9.71022ZM23.9835 1.9427L23.9835 10.1957L24.9545 10.1957L24.9545 1.9427L23.9835 1.9427ZM26.411 -0.484778C25.0704 -0.484778 23.9835 0.602041 23.9835 1.9427L24.9545 1.9427C24.9545 1.1383 25.6066 0.486211 26.411 0.486211L26.411 -0.484778ZM31.8486 -0.484777L26.411 -0.484778L26.411 0.486211L31.8486 0.486211L31.8486 -0.484777ZM34.276 1.94269C34.276 0.60204 33.1892 -0.484777 31.8486 -0.484777L31.8486 0.486211C32.6529 0.486211 33.305 1.1383 33.305 1.94269L34.276 1.94269ZM34.276 10.1957L34.276 1.94269L33.305 1.94269L33.305 10.1957L34.276 10.1957ZM34.5672 9.71022L33.7905 9.71022L33.7905 10.6812L34.5672 10.6812L34.5672 9.71022ZM35.4411 10.5841C35.4411 10.1015 35.0498 9.71022 34.5672 9.71022L34.5672 10.6812C34.5135 10.6812 34.4701 10.6377 34.4701 10.5841L35.4411 10.5841ZM33.9116 12.5589C34.7909 12.3325 35.4411 11.5348 35.4411 10.5841L34.4701 10.5841C34.4701 11.0811 34.1302 11.4999 33.6695 11.6186L33.9116 12.5589ZM34.276 13.5946L34.276 12.0887L33.305 12.0887L33.305 13.5946L34.276 13.5946Z" fill="#545454" mask="url(#path-8-inside-2_36_8649)"/>
<rect x="31.8002" y="13.352" width="5.34044" height="10.1954" rx="1.69923" transform="rotate(-180 31.8002 13.352)" stroke="#545454" stroke-width="0.485494"/>
<path d="M31.5576 10.1953L26.7027 10.1953" stroke="#545454" stroke-width="0.485494"/>
<path d="M31.7998 6.79688L26.7021 6.79687" stroke="#545454" stroke-width="0.485494"/>
<path d="M20.3906 0.364258V25.4886" stroke="#545454" stroke-width="0.728242"/>
<path d="M9.20932 11.9086C9.35152 12.0508 9.58207 12.0508 9.72427 11.9086L12.0415 9.59138C12.1837 9.44919 12.1837 9.21864 12.0415 9.07644C11.8993 8.93424 11.6688 8.93424 11.5266 9.07644L9.4668 11.1362L7.40702 9.07644C7.26482 8.93424 7.03427 8.93424 6.89207 9.07644C6.74988 9.21864 6.74988 9.44919 6.89207 9.59138L9.20932 11.9086ZM9.10268 0.727539V11.6512H9.83092V0.727539H9.10268Z" fill="#545454"/>
<path d="M0 0.364258V25.4886" stroke="#545454" stroke-width="1.45648"/>
<path d="M40.0532 0.364258V25.4886" stroke="#545454" stroke-width="1.45648"/>
</g>
<defs>
<clipPath id="clip0_36_8649">
<rect width="40" height="40" fill="white"/>
</clipPath>
</defs>
</svg>
