<svg width="40" height="40" viewBox="0 0 40 40" fill="none" xmlns="http://www.w3.org/2000/svg">
<g clip-path="url(#clip0_36_8644)">
<path d="M32.5736 17.9163L7.42616 17.9163C7.00214 17.9163 6.60704 17.7014 6.37669 17.3454L3.6806 13.1787C3.14244 12.347 3.73943 11.2496 4.73007 11.2496L35.2697 11.2496C36.2603 11.2496 36.8573 12.347 36.3192 13.1787L33.6231 17.3454C33.3927 17.7014 32.9976 17.9163 32.5736 17.9163Z" stroke="#545454" stroke-width="0.833337"/>
<path d="M37.5586 29.5838L2.83141 29.5838C2.19237 29.5838 1.65623 29.1018 1.58846 28.4664L0.610675 19.2997C0.531886 18.5611 1.1108 17.9171 1.85363 17.9171L38.2105 17.9171C38.9357 17.9171 39.5088 18.5323 39.4573 19.2558L38.8055 28.4225C38.759 29.0768 38.2146 29.5838 37.5586 29.5838Z" stroke="#545454" stroke-width="0.833337"/>
<path d="M35.9934 28.2085L4.3479 28.2085C3.57521 28.2085 2.92188 27.6365 2.81976 26.8706L2.04198 21.0372C1.91875 20.113 2.63774 19.2918 3.57013 19.2918L36.5119 19.2918C37.4172 19.2918 38.1277 20.0682 38.0475 20.97L37.529 26.8033C37.4583 27.5987 36.7919 28.2085 35.9934 28.2085Z" stroke="#545454" stroke-width="0.250001"/>
</g>
<defs>
<clipPath id="clip0_36_8644">
<rect width="40.0002" height="40.0002" fill="white"/>
</clipPath>
</defs>
</svg>
