<svg width="40" height="40" viewBox="0 0 40 40" fill="none" xmlns="http://www.w3.org/2000/svg">
<g clip-path="url(#clip0_36_8642)">
<path d="M1.66667 9.58366H29.5254C32.1043 9.58366 34.4184 11.1677 35.3517 13.5718L38.5869 21.9051C40.1773 26.0017 37.155 30.4171 32.7606 30.4171H1.66667C0.976315 30.4171 0.416668 29.8574 0.416668 29.1671V10.8337C0.416668 10.1433 0.976315 9.58366 1.66667 9.58366Z" stroke="#545454" stroke-width="0.833337"/>
<rect x="4.58338" y="12.9169" width="27.5001" height="15.0001" stroke="#545454" stroke-width="0.833337"/>
<path d="M6.24982 26.2509L10.0883 26.5349L8.41499 23.0687L6.24982 26.2509ZM30.4166 14.5842L26.578 14.3003L28.2514 17.7665L30.4166 14.5842ZM9.0964 25.2469L27.8598 16.1887L27.57 15.5883L8.80657 24.6465L9.0964 25.2469Z" fill="#545454"/>
<path d="M19.4234 25.4305H20.2234V23.3055L19.5484 23.6655L19.3134 23.1705L20.3834 22.6005H20.8534V25.4305H21.6034V26.0005H19.4234V25.4305ZM22.1015 25.5155C22.1715 25.3822 22.2615 25.2588 22.3715 25.1455C22.4848 25.0322 22.6032 24.9272 22.7265 24.8305C22.8532 24.7305 22.9798 24.6355 23.1065 24.5455C23.2365 24.4521 23.3515 24.3605 23.4515 24.2705C23.5548 24.1771 23.6382 24.0821 23.7015 23.9855C23.7682 23.8888 23.8015 23.7838 23.8015 23.6705C23.8015 23.5971 23.7898 23.5271 23.7665 23.4605C23.7465 23.3938 23.7132 23.3355 23.6665 23.2855C23.6198 23.2355 23.5582 23.1955 23.4815 23.1655C23.4082 23.1355 23.3182 23.1205 23.2115 23.1205C23.0548 23.1205 22.9265 23.1605 22.8265 23.2405C22.7265 23.3205 22.6532 23.4321 22.6065 23.5755L22.1165 23.3055C22.1465 23.2188 22.1898 23.1305 22.2465 23.0405C22.3065 22.9471 22.3815 22.8638 22.4715 22.7905C22.5615 22.7138 22.6698 22.6521 22.7965 22.6055C22.9232 22.5555 23.0715 22.5305 23.2415 22.5305C23.4315 22.5305 23.5998 22.5588 23.7465 22.6155C23.8965 22.6721 24.0215 22.7505 24.1215 22.8505C24.2248 22.9505 24.3032 23.0671 24.3565 23.2005C24.4098 23.3338 24.4365 23.4771 24.4365 23.6305C24.4365 23.7971 24.4065 23.9471 24.3465 24.0805C24.2865 24.2138 24.2098 24.3355 24.1165 24.4455C24.0265 24.5521 23.9232 24.6505 23.8065 24.7405C23.6932 24.8272 23.5798 24.9105 23.4665 24.9905C23.3565 25.0672 23.2548 25.1422 23.1615 25.2155C23.0682 25.2855 22.9948 25.3572 22.9415 25.4305H24.5015V26.0005H22.1015V25.5155ZM24.9796 25.4605H25.7496V26.2255H24.9796V25.4605ZM27.2834 26.0705C27.1334 26.0705 26.9951 26.0522 26.8684 26.0155C26.7417 25.9788 26.6267 25.9338 26.5234 25.8805C26.4201 25.8238 26.3284 25.7622 26.2484 25.6955C26.1717 25.6288 26.1067 25.5638 26.0534 25.5005L26.4234 25.0605C26.4667 25.1105 26.5151 25.1605 26.5684 25.2105C26.6251 25.2605 26.6884 25.3055 26.7584 25.3455C26.8284 25.3855 26.9067 25.4188 26.9934 25.4455C27.0801 25.4688 27.1767 25.4805 27.2834 25.4805C27.4934 25.4805 27.6667 25.4372 27.8034 25.3505C27.9401 25.2638 28.0084 25.1388 28.0084 24.9755C28.0084 24.8255 27.9484 24.7121 27.8284 24.6355C27.7117 24.5555 27.5334 24.5155 27.2934 24.5155H26.9584V23.9555H27.2934C27.4801 23.9555 27.6151 23.9138 27.6984 23.8305C27.7851 23.7438 27.8284 23.6438 27.8284 23.5305C27.8284 23.3938 27.7767 23.2921 27.6734 23.2255C27.5734 23.1555 27.4517 23.1205 27.3084 23.1205C27.1251 23.1205 26.9767 23.1555 26.8634 23.2255C26.7534 23.2921 26.6651 23.3721 26.5984 23.4655L26.2184 23.0655C26.2717 22.9955 26.335 22.9288 26.4084 22.8655C26.4851 22.7988 26.5701 22.7405 26.6634 22.6905C26.7567 22.6405 26.8567 22.6021 26.9634 22.5755C27.0734 22.5455 27.1884 22.5305 27.3084 22.5305C27.6751 22.5305 27.9617 22.6138 28.1684 22.7805C28.3751 22.9471 28.4784 23.1821 28.4784 23.4855C28.4784 23.6255 28.4401 23.7571 28.3634 23.8805C28.2867 24.0038 28.1801 24.1055 28.0434 24.1855C28.2434 24.2521 28.3951 24.3605 28.4984 24.5105C28.6051 24.6571 28.6584 24.8305 28.6584 25.0305C28.6584 25.1905 28.6217 25.3355 28.5484 25.4655C28.4784 25.5922 28.3817 25.7005 28.2584 25.7905C28.1351 25.8805 27.9901 25.9505 27.8234 26.0005C27.6567 26.0472 27.4767 26.0705 27.2834 26.0705ZM29.0514 22.3005H29.8214V22.9755L29.4764 23.7605H29.1014L29.4014 23.0605H29.0514V22.3005ZM30.1264 22.3005H30.8964V22.9755L30.5514 23.7605H30.1764L30.4764 23.0605H30.1264V22.3005Z" fill="#545454"/>
</g>
<defs>
<clipPath id="clip0_36_8642">
<rect width="40.0002" height="40.0002" fill="white"/>
</clipPath>
</defs>
</svg>
