<svg width="40" height="40" viewBox="0 0 40 40" fill="none" xmlns="http://www.w3.org/2000/svg">
<mask id="path-1-inside-1_36_8643" fill="white">
<path fill-rule="evenodd" clip-rule="evenodd" d="M32.5377 1.32353C32.1032 0.508873 31.255 0 30.3318 0H9.11087C8.21051 0 7.3797 0.48414 6.93581 1.26747L4.59862 5.39192H1.89824C0.97776 5.39192 0.231565 6.13812 0.231565 7.0586V7.31962C0.231565 8.24009 0.977758 8.98629 1.89824 8.98629H2.56181L1.13027 11.5125L1.1301 11.5126L1.1299 11.5128V11.5132L1.1299 11.5132L1.12989 11.5132L1.1299 19.9562V23.0258V26.6667C1.1299 28.0474 2.2492 29.1667 3.62991 29.1667H4.00272C5.38344 29.1667 6.50273 28.0474 6.50273 26.6667V25.5259C6.50273 24.1451 7.62203 23.0258 9.00275 23.0258H30.0992C31.4799 23.0258 32.5992 24.1451 32.5992 25.5259V26.6667C32.5992 28.0474 33.7185 29.1667 35.0992 29.1667H35.472C36.8527 29.1667 37.972 28.0474 37.972 26.6667V23.0259L37.9721 23.0258L37.9722 23.0258V11.5128L37.972 11.5126L37.9718 11.5125L36.6245 8.98629H38.1034C39.0239 8.98629 39.7701 8.2401 39.7701 7.31962V7.0586C39.7701 6.13812 39.0239 5.39192 38.1034 5.39192H35.1466C35.0045 5.39192 34.8665 5.40972 34.7348 5.44319L32.5377 1.32353Z"/>
</mask>
<path d="M32.5377 1.32353L31.8024 1.71569L31.8024 1.71569L32.5377 1.32353ZM6.93581 1.26747L7.66083 1.67832L7.66083 1.67832L6.93581 1.26747ZM4.59862 5.39192V6.22526H5.08423L5.32364 5.80277L4.59862 5.39192ZM2.56181 8.98629L3.28683 9.39714L3.99187 8.15295H2.56181V8.98629ZM1.13027 11.5125L1.5483 12.2334L1.74385 12.1201L1.85529 11.9234L1.13027 11.5125ZM1.1301 11.5126L0.712067 10.7917L0.617908 10.8463L0.540931 10.9233L1.1301 11.5126ZM1.1299 11.5128L0.540737 10.9235L0.296568 11.1676V11.5128H1.1299ZM1.1299 11.5132L1.93426 11.731L1.96324 11.624V11.5132H1.1299ZM1.1299 11.5132L0.325537 11.2953L0.324939 11.2976L1.1299 11.5132ZM1.12989 11.5132L0.324934 11.2976L0.296557 11.4035L0.296557 11.5132L1.12989 11.5132ZM1.1299 19.9562L1.96324 19.9562L1.96324 19.9562L1.1299 19.9562ZM37.972 23.0259L37.3747 22.4448L37.1387 22.6874V23.0259H37.972ZM37.9721 23.0258L37.3907 22.4288L37.3827 22.4366L37.3748 22.4447L37.9721 23.0258ZM37.9722 23.0258L38.5535 23.6228L38.8055 23.3775V23.0258H37.9722ZM37.9722 11.5128H38.8055V11.1689L38.5629 10.925L37.9722 11.5128ZM37.972 11.5126L38.5627 10.9248L38.4879 10.8497L38.3967 10.7957L37.972 11.5126ZM37.9718 11.5125L37.2365 11.9047L37.3463 12.1106L37.5471 12.2295L37.9718 11.5125ZM36.6245 8.98629V8.15295H35.2356L35.8892 9.37845L36.6245 8.98629ZM34.7348 5.44319L33.9995 5.83535L34.3069 6.41178L34.9401 6.25085L34.7348 5.44319ZM30.3318 0.833337C30.9473 0.833337 31.5127 1.17259 31.8024 1.71569L33.273 0.931378C32.6936 -0.15484 31.5628 -0.833337 30.3318 -0.833337V0.833337ZM9.11087 0.833337H30.3318V-0.833337H9.11087V0.833337ZM7.66083 1.67832C7.95675 1.1561 8.51063 0.833337 9.11087 0.833337V-0.833337C7.91039 -0.833337 6.80264 -0.187817 6.21079 0.856629L7.66083 1.67832ZM5.32364 5.80277L7.66083 1.67832L6.21079 0.856629L3.8736 4.98108L5.32364 5.80277ZM1.89824 6.22526H4.59862V4.55859H1.89824V6.22526ZM1.0649 7.0586C1.0649 6.59836 1.438 6.22526 1.89824 6.22526V4.55859C0.517521 4.55859 -0.601772 5.67788 -0.601772 7.0586H1.0649ZM1.0649 7.31962V7.0586H-0.601772V7.31962H1.0649ZM1.89824 8.15295C1.438 8.15295 1.0649 7.77986 1.0649 7.31962H-0.601772C-0.601772 8.70033 0.517518 9.81963 1.89824 9.81963V8.15295ZM2.56181 8.15295H1.89824V9.81963H2.56181V8.15295ZM1.85529 11.9234L3.28683 9.39714L1.83679 8.57544L0.405247 11.1017L1.85529 11.9234ZM1.54813 12.2335L1.5483 12.2334L0.712237 10.7916L0.712067 10.7917L1.54813 12.2335ZM1.71907 12.1022L1.71927 12.102L0.540931 10.9233L0.540737 10.9235L1.71907 12.1022ZM1.96324 11.5132V11.5128H0.296568V11.5132H1.96324ZM1.93426 11.731L1.93426 11.731L0.325546 11.2953L0.32554 11.2953L1.93426 11.731ZM1.93485 11.7288L1.93486 11.7288L0.324939 11.2976L0.324934 11.2976L1.93485 11.7288ZM1.96324 19.9562L1.96323 11.5132L0.296557 11.5132L0.296568 19.9562L1.96324 19.9562ZM1.96324 23.0258V19.9562H0.296568V23.0258H1.96324ZM1.96324 26.6667V23.0258H0.296568V26.6667H1.96324ZM3.62991 28.3334C2.70944 28.3334 1.96324 27.5872 1.96324 26.6667H0.296568C0.296568 28.5077 1.78896 30.0001 3.62991 30.0001V28.3334ZM4.00272 28.3334H3.62991V30.0001H4.00272V28.3334ZM5.6694 26.6667C5.6694 27.5872 4.9232 28.3334 4.00272 28.3334V30.0001C5.84368 30.0001 7.33607 28.5077 7.33607 26.6667H5.6694ZM5.6694 25.5259V26.6667H7.33607V25.5259H5.6694ZM9.00275 22.1925C7.16179 22.1925 5.6694 23.6849 5.6694 25.5259H7.33607C7.33607 24.6054 8.08227 23.8592 9.00275 23.8592V22.1925ZM30.0992 22.1925H9.00275V23.8592H30.0992V22.1925ZM33.4325 25.5259C33.4325 23.6849 31.9401 22.1925 30.0992 22.1925V23.8592C31.0197 23.8592 31.7659 24.6054 31.7659 25.5259H33.4325ZM33.4325 26.6667V25.5259H31.7659V26.6667H33.4325ZM35.0992 28.3334C34.1787 28.3334 33.4325 27.5872 33.4325 26.6667H31.7659C31.7659 28.5077 33.2582 30.0001 35.0992 30.0001V28.3334ZM35.472 28.3334H35.0992V30.0001H35.472V28.3334ZM37.1387 26.6667C37.1387 27.5872 36.3925 28.3334 35.472 28.3334V30.0001C37.313 30.0001 38.8054 28.5077 38.8054 26.6667H37.1387ZM37.1387 23.0259V26.6667H38.8054V23.0259H37.1387ZM37.3748 22.4447L37.3747 22.4448L38.5693 23.607L38.5694 23.607L37.3748 22.4447ZM37.3908 22.4287L37.3907 22.4288L38.5534 23.6229L38.5535 23.6228L37.3908 22.4287ZM37.1388 11.5128V23.0258H38.8055V11.5128H37.1388ZM37.3813 12.1005L37.3815 12.1007L38.5629 10.925L38.5627 10.9248L37.3813 12.1005ZM37.5471 12.2295L37.5472 12.2296L38.3967 10.7957L38.3965 10.7956L37.5471 12.2295ZM35.8892 9.37845L37.2365 11.9047L38.7071 11.1204L37.3598 8.59413L35.8892 9.37845ZM38.1034 8.15295H36.6245V9.81963H38.1034V8.15295ZM38.9368 7.31962C38.9368 7.77985 38.5637 8.15295 38.1034 8.15295V9.81963C39.4842 9.81963 40.6034 8.70034 40.6034 7.31962H38.9368ZM38.9368 7.0586V7.31962H40.6034V7.0586H38.9368ZM38.1034 6.22526C38.5637 6.22526 38.9368 6.59836 38.9368 7.0586H40.6034C40.6034 5.67788 39.4842 4.55859 38.1034 4.55859V6.22526ZM35.1466 6.22526H38.1034V4.55859H35.1466V6.22526ZM34.9401 6.25085C35.0053 6.23429 35.0743 6.22526 35.1466 6.22526V4.55859C34.9347 4.55859 34.7278 4.58515 34.5295 4.63554L34.9401 6.25085ZM31.8024 1.71569L33.9995 5.83535L35.4701 5.05104L33.273 0.931377L31.8024 1.71569Z" fill="#545454" mask="url(#path-1-inside-1_36_8643)"/>
<path d="M10.4621 2.91667H28.7049C29.1621 2.91667 29.5829 3.16634 29.802 3.56768L31.6219 6.90103C32.0767 7.73401 31.4738 8.75002 30.5247 8.75002H8.64227C7.69323 8.75002 7.09036 7.73401 7.54513 6.90103L9.36499 3.56768C9.5841 3.16634 10.0049 2.91667 10.4621 2.91667Z" stroke="#545454" stroke-width="0.833337"/>
<path d="M14.2228 25.4169H24.9441C25.0874 25.4169 25.2206 25.4905 25.2969 25.6118L26.3447 27.2785C26.5191 27.556 26.3197 27.9169 25.9919 27.9169H13.175C12.8472 27.9169 12.6478 27.556 12.8222 27.2785L13.87 25.6118C13.9463 25.4905 14.0795 25.4169 14.2228 25.4169Z" fill="#545454" stroke="#545454" stroke-width="0.833337"/>
<path d="M13.0496 29.5832H26.9508C27.0779 29.5832 27.1981 29.6412 27.2771 29.7407L28.6006 31.4074C28.8175 31.6805 28.623 32.0832 28.2743 32.0832H11.7261C11.3774 32.0832 11.1829 31.6805 11.3998 31.4074L12.7233 29.7407C12.8023 29.6412 12.9225 29.5832 13.0496 29.5832Z" fill="#545454" stroke="#545454" stroke-width="0.833337"/>
<path d="M11.2567 33.7504H28.7435C28.8833 33.7504 29.0138 33.8205 29.091 33.9371L31.2969 37.2705C31.4802 37.5475 31.2815 37.9171 30.9494 37.9171H9.0508C8.71865 37.9171 8.52002 37.5475 8.70333 37.2705L10.9092 33.9371C10.9864 33.8205 11.1169 33.7504 11.2567 33.7504Z" fill="#545454" stroke="#545454" stroke-width="0.833337"/>
</svg>
