<svg width="57" height="40" viewBox="0 0 57 40" fill="none" xmlns="http://www.w3.org/2000/svg">
<circle cx="42.9167" cy="21.2499" r="5" stroke="#545454" stroke-width="0.833333"/>
<circle cx="13.75" cy="21.2499" r="5" stroke="#545454" stroke-width="0.833333"/>
<mask id="path-3-inside-1_36_8497" fill="white">
<path d="M9.99999 27.5001C9.99999 28.1691 9.7987 28.8226 9.42228 29.3756C9.04587 29.9287 8.51175 30.3557 7.88939 30.6011C7.26704 30.8465 6.58524 30.8989 5.93267 30.7516C5.2801 30.6043 4.68696 30.264 4.23037 29.7751C3.77379 29.2861 3.47489 28.6711 3.37256 28.01C3.27022 27.3489 3.36918 26.6723 3.65657 26.0681C3.94396 25.464 4.40647 24.9604 4.98397 24.6226C5.56146 24.2849 6.22721 24.1288 6.89463 24.1746L6.84242 24.9362C6.32786 24.9009 5.81459 25.0213 5.36936 25.2817C4.92414 25.542 4.56756 25.9304 4.34599 26.3961C4.12443 26.8619 4.04813 27.3835 4.12703 27.8932C4.20592 28.4029 4.43636 28.8771 4.78837 29.254C5.14038 29.631 5.59768 29.8933 6.10078 30.0069C6.60389 30.1205 7.12953 30.08 7.60934 29.8908C8.08916 29.7016 8.50094 29.3724 8.79115 28.9461C9.08135 28.5197 9.23654 28.0158 9.23654 27.5001H9.99999Z"/>
</mask>
<path d="M9.99999 27.5001C9.99999 28.1691 9.7987 28.8226 9.42228 29.3756C9.04587 29.9287 8.51175 30.3557 7.88939 30.6011C7.26704 30.8465 6.58524 30.8989 5.93267 30.7516C5.2801 30.6043 4.68696 30.264 4.23037 29.7751C3.77379 29.2861 3.47489 28.6711 3.37256 28.01C3.27022 27.3489 3.36918 26.6723 3.65657 26.0681C3.94396 25.464 4.40647 24.9604 4.98397 24.6226C5.56146 24.2849 6.22721 24.1288 6.89463 24.1746L6.84242 24.9362C6.32786 24.9009 5.81459 25.0213 5.36936 25.2817C4.92414 25.542 4.56756 25.9304 4.34599 26.3961C4.12443 26.8619 4.04813 27.3835 4.12703 27.8932C4.20592 28.4029 4.43636 28.8771 4.78837 29.254C5.14038 29.631 5.59768 29.8933 6.10078 30.0069C6.60389 30.1205 7.12953 30.08 7.60934 29.8908C8.08916 29.7016 8.50094 29.3724 8.79115 28.9461C9.08135 28.5197 9.23654 28.0158 9.23654 27.5001H9.99999Z" stroke="#545454" stroke-width="1.66667" mask="url(#path-3-inside-1_36_8497)"/>
<mask id="path-4-inside-2_36_8497" fill="white">
<path d="M46.6667 27.5001C46.6667 28.1691 46.868 28.8226 47.2444 29.3756C47.6208 29.9287 48.1549 30.3557 48.7773 30.6011C49.3996 30.8465 50.0814 30.8989 50.734 30.7516C51.3866 30.6043 51.9797 30.264 52.4363 29.7751C52.8929 29.2861 53.1918 28.6711 53.2941 28.01C53.3964 27.3489 53.2975 26.6723 53.0101 26.0681C52.7227 25.464 52.2602 24.9604 51.6827 24.6226C51.1052 24.2849 50.4395 24.1288 49.772 24.1746L49.8242 24.9362C50.3388 24.9009 50.8521 25.0213 51.2973 25.2817C51.7425 25.542 52.0991 25.9304 52.3207 26.3961C52.5422 26.8619 52.6185 27.3835 52.5396 27.8932C52.4607 28.4029 52.2303 28.8771 51.8783 29.254C51.5263 29.631 51.069 29.8933 50.5659 30.0069C50.0628 30.1205 49.5371 30.08 49.0573 29.8908C48.5775 29.7016 48.1657 29.3724 47.8755 28.9461C47.5853 28.5197 47.4301 28.0158 47.4301 27.5001H46.6667Z"/>
</mask>
<path d="M46.6667 27.5001C46.6667 28.1691 46.868 28.8226 47.2444 29.3756C47.6208 29.9287 48.1549 30.3557 48.7773 30.6011C49.3996 30.8465 50.0814 30.8989 50.734 30.7516C51.3866 30.6043 51.9797 30.264 52.4363 29.7751C52.8929 29.2861 53.1918 28.6711 53.2941 28.01C53.3964 27.3489 53.2975 26.6723 53.0101 26.0681C52.7227 25.464 52.2602 24.9604 51.6827 24.6226C51.1052 24.2849 50.4395 24.1288 49.772 24.1746L49.8242 24.9362C50.3388 24.9009 50.8521 25.0213 51.2973 25.2817C51.7425 25.542 52.0991 25.9304 52.3207 26.3961C52.5422 26.8619 52.6185 27.3835 52.5396 27.8932C52.4607 28.4029 52.2303 28.8771 51.8783 29.254C51.5263 29.631 51.069 29.8933 50.5659 30.0069C50.0628 30.1205 49.5371 30.08 49.0573 29.8908C48.5775 29.7016 48.1657 29.3724 47.8755 28.9461C47.5853 28.5197 47.4301 28.0158 47.4301 27.5001H46.6667Z" stroke="#545454" stroke-width="1.66667" mask="url(#path-4-inside-2_36_8497)"/>
<circle cx="6.66667" cy="27.4999" r="1.25" stroke="#545454" stroke-width="0.833333"/>
<circle cx="1.66667" cy="1.66667" r="1.25" transform="matrix(-1 0 0 1 51.6667 25.8333)" stroke="#545454" stroke-width="0.833333"/>
<path d="M16.1585 8.74992H40.2524C42.2942 8.74992 43.799 8.75029 44.998 8.85494C46.1903 8.959 47.0466 9.16411 47.7952 9.55533C48.5726 9.96151 49.2677 10.5085 49.8453 11.1685C50.4016 11.8042 50.8023 12.5883 51.1838 13.7226C51.5675 14.8634 51.9217 16.3259 52.4018 18.3105C53.1426 21.3724 53.6899 23.6369 53.9275 25.4268C54.1644 27.2118 54.0839 28.4664 53.6162 29.5262C53.1349 30.617 52.3861 31.5685 51.4391 32.2928C50.519 32.9966 49.3185 33.3699 47.5278 33.5594C45.7322 33.7494 43.4026 33.7499 40.2524 33.7499H16.1586C13.0518 33.7499 10.7546 33.7494 8.98193 33.5625C7.21421 33.3762 6.02598 33.009 5.11016 32.3165C4.16735 31.6036 3.41794 30.6661 2.9302 29.5894C2.45642 28.5436 2.36003 27.3037 2.56762 25.5383C2.77579 23.768 3.28124 21.5271 3.96553 18.4967C4.42185 16.4758 4.75854 14.9864 5.13069 13.8243C5.50076 12.6686 5.89625 11.8695 6.45281 11.2208C7.03051 10.5475 7.72954 9.98874 8.51355 9.57354C9.26889 9.17353 10.1355 8.96376 11.3443 8.85732C12.5598 8.75029 14.0868 8.74992 16.1585 8.74992Z" stroke="#545454" stroke-width="0.833333"/>
<mask id="path-8-inside-3_36_8497" fill="white">
<path d="M21.407 19.2388C20.9909 17.6547 20.0937 16.2386 18.8391 15.1857C17.5845 14.1328 16.0342 13.495 14.4019 13.3601C12.7696 13.2253 11.1356 13.6 9.7252 14.4327C8.31479 15.2654 7.19737 16.515 6.52694 18.0094C5.85651 19.5038 5.66608 21.1693 5.98189 22.7764C6.29771 24.3836 7.10422 25.8532 8.29028 26.9827C9.47633 28.1123 10.9835 28.8462 12.6042 29.0832C14.2248 29.3203 15.879 29.0489 17.3389 28.3063L16.9422 27.5264C15.6437 28.1868 14.1723 28.4282 12.7308 28.2174C11.2893 28.0065 9.94872 27.3538 8.89377 26.3491C7.83882 25.3444 7.12145 24.0372 6.84054 22.6077C6.55964 21.1782 6.72902 19.6968 7.32534 18.3676C7.92166 17.0384 8.91557 15.9269 10.1701 15.1862C11.4246 14.4456 12.8779 14.1123 14.3298 14.2322C15.7817 14.3522 17.1606 14.9195 18.2766 15.856C19.3925 16.7925 20.1905 18.0521 20.5606 19.4611L21.407 19.2388Z"/>
</mask>
<path d="M21.407 19.2388C20.9909 17.6547 20.0937 16.2386 18.8391 15.1857C17.5845 14.1328 16.0342 13.495 14.4019 13.3601C12.7696 13.2253 11.1356 13.6 9.7252 14.4327C8.31479 15.2654 7.19737 16.515 6.52694 18.0094C5.85651 19.5038 5.66608 21.1693 5.98189 22.7764C6.29771 24.3836 7.10422 25.8532 8.29028 26.9827C9.47633 28.1123 10.9835 28.8462 12.6042 29.0832C14.2248 29.3203 15.879 29.0489 17.3389 28.3063L16.9422 27.5264C15.6437 28.1868 14.1723 28.4282 12.7308 28.2174C11.2893 28.0065 9.94872 27.3538 8.89377 26.3491C7.83882 25.3444 7.12145 24.0372 6.84054 22.6077C6.55964 21.1782 6.72902 19.6968 7.32534 18.3676C7.92166 17.0384 8.91557 15.9269 10.1701 15.1862C11.4246 14.4456 12.8779 14.1123 14.3298 14.2322C15.7817 14.3522 17.1606 14.9195 18.2766 15.856C19.3925 16.7925 20.1905 18.0521 20.5606 19.4611L21.407 19.2388Z" stroke="#545454" stroke-width="1.66667" mask="url(#path-8-inside-3_36_8497)"/>
<mask id="path-9-inside-4_36_8497" fill="white">
<path d="M35.2597 19.2388C35.6758 17.6547 36.5729 16.2386 37.8276 15.1857C39.0822 14.1328 40.6325 13.495 42.2648 13.3601C43.8971 13.2253 45.531 13.6 46.9415 14.4327C48.3519 15.2654 49.4693 16.515 50.1397 18.0094C50.8101 19.5038 51.0006 21.1693 50.6848 22.7764C50.3689 24.3836 49.5624 25.8532 48.3764 26.9827C47.1903 28.1123 45.6831 28.8462 44.0625 29.0832C42.4419 29.3203 40.7876 29.0489 39.3277 28.3063L39.7244 27.5264C41.0229 28.1868 42.4943 28.4282 43.9358 28.2174C45.3773 28.0065 46.7179 27.3538 47.7729 26.3491C48.8278 25.3444 49.5452 24.0372 49.8261 22.6077C50.107 21.1782 49.9376 19.6968 49.3413 18.3676C48.745 17.0384 47.7511 15.9269 46.4966 15.1862C45.2421 14.4456 43.7887 14.1123 42.3368 14.2322C40.885 14.3522 39.506 14.9195 38.3901 15.856C37.2741 16.7925 36.4761 18.0521 36.1061 19.4611L35.2597 19.2388Z"/>
</mask>
<path d="M35.2597 19.2388C35.6758 17.6547 36.5729 16.2386 37.8276 15.1857C39.0822 14.1328 40.6325 13.495 42.2648 13.3601C43.8971 13.2253 45.531 13.6 46.9415 14.4327C48.3519 15.2654 49.4693 16.515 50.1397 18.0094C50.8101 19.5038 51.0006 21.1693 50.6848 22.7764C50.3689 24.3836 49.5624 25.8532 48.3764 26.9827C47.1903 28.1123 45.6831 28.8462 44.0625 29.0832C42.4419 29.3203 40.7876 29.0489 39.3277 28.3063L39.7244 27.5264C41.0229 28.1868 42.4943 28.4282 43.9358 28.2174C45.3773 28.0065 46.7179 27.3538 47.7729 26.3491C48.8278 25.3444 49.5452 24.0372 49.8261 22.6077C50.107 21.1782 49.9376 19.6968 49.3413 18.3676C48.745 17.0384 47.7511 15.9269 46.4966 15.1862C45.2421 14.4456 43.7887 14.1123 42.3368 14.2322C40.885 14.3522 39.506 14.9195 38.3901 15.856C37.2741 16.7925 36.4761 18.0521 36.1061 19.4611L35.2597 19.2388Z" stroke="#545454" stroke-width="1.66667" mask="url(#path-9-inside-4_36_8497)"/>
<circle cx="13.75" cy="21.2499" r="2.5" stroke="#545454" stroke-width="0.833333"/>
<circle cx="42.9167" cy="21.2499" r="2.5" stroke="#545454" stroke-width="0.833333"/>
<path d="M20 15H36.6667" stroke="#545454" stroke-width="0.833333"/>
<path d="M17.5 31.2499L18.4344 30.3155C18.9033 29.8466 19.5392 29.5833 20.2022 29.5833H36.8811C37.5442 29.5833 38.1801 29.8466 38.6489 30.3155L39.5833 31.2499" stroke="#545454" stroke-width="0.833333"/>
<path d="M9.99999 17.4999L8.33333 15.8333" stroke="#545454" stroke-width="0.833333"/>
<path d="M46.6667 17.4999L48.3333 15.8333" stroke="#545454" stroke-width="0.833333"/>
<path fill-rule="evenodd" clip-rule="evenodd" d="M42.9976 18.7406C41.7211 18.8299 40.4139 18.2852 39.6346 16.8674L40.3649 16.466C40.9745 17.5751 41.9589 17.9779 42.9394 17.9093C43.9423 17.8391 44.9338 17.2733 45.4853 16.4373L46.1809 16.8961C45.4823 17.9552 44.2516 18.6529 42.9976 18.7406Z" fill="#545454"/>
<path fill-rule="evenodd" clip-rule="evenodd" d="M13.8309 18.7406C12.5545 18.8299 11.2472 18.2852 10.4679 16.8674L11.1982 16.466C11.8078 17.5751 12.7923 17.9779 13.7728 17.9093C14.7756 17.8391 15.7671 17.2733 16.3186 16.4373L17.0142 16.8961C16.3157 17.9552 15.085 18.6529 13.8309 18.7406Z" fill="#545454"/>
<path fill-rule="evenodd" clip-rule="evenodd" d="M42.9976 23.7594C41.7211 23.6701 40.4139 24.2148 39.6346 25.6326L40.3649 26.034C40.9745 24.9249 41.9589 24.5221 42.9394 24.5907C43.9423 24.6609 44.9338 25.2267 45.4853 26.0627L46.1809 25.6039C45.4823 24.5448 44.2516 23.8471 42.9976 23.7594Z" fill="#545454"/>
<path fill-rule="evenodd" clip-rule="evenodd" d="M13.8309 23.7594C12.5545 23.6701 11.2472 24.2148 10.4679 25.6326L11.1982 26.034C11.8078 24.9249 12.7923 24.5221 13.7728 24.5907C14.7756 24.6609 15.7671 25.2267 16.3186 26.0627L17.0142 25.6039C16.3157 24.5448 15.085 23.8471 13.8309 23.7594Z" fill="#545454"/>
<path fill-rule="evenodd" clip-rule="evenodd" d="M45.4261 21.1688C45.3368 22.4452 45.8815 23.7524 47.2994 24.5317L47.7008 23.8014C46.5917 23.1919 46.1888 22.2074 46.2574 21.2269C46.3276 20.224 46.8934 19.2325 47.7295 18.6811L47.2707 17.9854C46.2116 18.684 45.5139 19.9147 45.4261 21.1688Z" fill="#545454"/>
<path fill-rule="evenodd" clip-rule="evenodd" d="M16.2595 21.1688C16.1701 22.4452 16.7149 23.7524 18.1327 24.5317L18.5341 23.8014C17.425 23.1919 17.0222 22.2074 17.0908 21.2269C17.1609 20.224 17.7267 19.2325 18.5628 18.6811L18.104 17.9854C17.0449 18.684 16.3472 19.9147 16.2595 21.1688Z" fill="#545454"/>
<path fill-rule="evenodd" clip-rule="evenodd" d="M40.4072 21.1688C40.4965 22.4452 39.9518 23.7524 38.5339 24.5317L38.1326 23.8014C39.2416 23.1919 39.6445 22.2074 39.5759 21.2269C39.5057 20.224 38.9399 19.2325 38.1038 18.6811L38.5627 17.9854C39.6218 18.684 40.3194 19.9147 40.4072 21.1688Z" fill="#545454"/>
<path fill-rule="evenodd" clip-rule="evenodd" d="M11.2405 21.1688C11.3299 22.4452 10.7851 23.7524 9.36729 24.5317L8.96589 23.8014C10.075 23.1919 10.4778 22.2074 10.4092 21.2269C10.3391 20.224 9.77326 19.2325 8.93718 18.6811L9.396 17.9854C10.4551 18.684 11.1528 19.9147 11.2405 21.1688Z" fill="#545454"/>
</svg>
