<svg width="40" height="40" viewBox="0 0 40 40" fill="none" xmlns="http://www.w3.org/2000/svg">
<g clip-path="url(#clip0_36_8458)">
<circle cx="20" cy="20" r="19.375" stroke="#545454" stroke-width="1.25"/>
<circle cx="20" cy="20" r="14.5833" stroke="#545454" stroke-width="0.833333"/>
<circle cx="20" cy="19.9999" r="3.75" stroke="#545454" stroke-width="0.833333"/>
<path d="M20.8333 0L19.1667 3.33333" stroke="#545454" stroke-width="0.833333"/>
<path d="M11.5595 2.49995L11.0216 5.79782" stroke="#545454" stroke-width="0.833333"/>
<path d="M4.10426 8.33338L5.88865 11.1442" stroke="#545454" stroke-width="0.833333"/>
<path d="M1.08373 14.1667L3.56539 16.2296" stroke="#545454" stroke-width="0.833333"/>
<path d="M20.8333 36.6667L19.1667 40.0001" stroke="#545454" stroke-width="0.833333"/>
<path d="M0.833344 23.3333L4.16668 24.1666" stroke="#545454" stroke-width="0.833333"/>
<path d="M3.33334 30.8005L6.76925 30.8088" stroke="#545454" stroke-width="0.833333"/>
<path d="M10 37.0833L12.5 35.8333" stroke="#545454" stroke-width="0.833333"/>
<path d="M28.3333 37.4999L29.1667 34.5833" stroke="#545454" stroke-width="0.833333"/>
<path d="M34.5833 32.9167V29.1667" stroke="#545454" stroke-width="0.833333"/>
<path d="M37.9167 27.0834L36.25 25.4167" stroke="#545454" stroke-width="0.833333"/>
<path d="M39.5833 20.4167L36.6667 18.75" stroke="#545454" stroke-width="0.833333"/>
<path d="M38.3333 12.4999L35 12.0833" stroke="#545454" stroke-width="0.833333"/>
<path d="M34.5833 7.08325L31.25 7.49992" stroke="#545454" stroke-width="0.833333"/>
<path d="M28.75 2.5L26.6667 4.16667" stroke="#545454" stroke-width="0.833333"/>
<path d="M15 6.66675L16.5 8.33341H23.5L25 6.66675" stroke="#545454" stroke-width="0.833333"/>
<path d="M15 33.3333L16.5 31.6666H23.5L25 33.3333" stroke="#545454" stroke-width="0.833333"/>
<path d="M28.9433 31.1604L28.2499 29.028L31.7499 22.9659L33.9433 22.5001" stroke="#545454" stroke-width="0.833333"/>
<path d="M5.83334 16.4292L8.06315 16.1931L12.172 10.5259L11.7031 8.33316" stroke="#545454" stroke-width="0.833333"/>
<path d="M10.8333 31.1604L11.5267 29.028L8.02672 22.9659L5.83334 22.5001" stroke="#545454" stroke-width="0.833333"/>
<path d="M33.9433 16.9937L31.7499 16.5279L28.2499 10.4658L28.9433 8.3334" stroke="#545454" stroke-width="0.833333"/>
<path d="M23.75 13.3333H16.25L11.6667 19.9999L16.25 27.0833H23.75L27.9167 19.9999L23.75 13.3333Z" stroke="#545454" stroke-width="0.833333"/>
</g>
<defs>
<clipPath id="clip0_36_8458">
<rect width="40" height="40" fill="white"/>
</clipPath>
</defs>
</svg>
