<svg width="40" height="40" viewBox="0 0 40 40" fill="none" xmlns="http://www.w3.org/2000/svg">
<g clip-path="url(#clip0_36_8647)">
<path d="M2.91297 10.7415H37.1403C38.4475 10.7415 39.5071 11.8011 39.5071 13.1083V28.4014C39.5071 28.9041 39.0995 29.3117 38.5968 29.3117H1.45648C0.953738 29.3117 0.546181 28.9041 0.546181 28.4014V13.1083C0.546181 11.8011 1.60583 10.7415 2.91297 10.7415Z" stroke="#545454" stroke-width="1.09236"/>
<path d="M5.82605 12.744H34.2275C35.6352 12.744 36.7763 13.8852 36.7763 15.2928V25.4882C36.7763 26.0915 36.2873 26.5806 35.684 26.5806H4.36957C3.76627 26.5806 3.27721 26.0915 3.27721 25.4882V15.2929C3.27721 13.8852 4.41836 12.744 5.82605 12.744Z" stroke="#545454" stroke-width="0.728242"/>
<path d="M10.5596 13.1084V26.5809" stroke="#545454" stroke-width="0.728242"/>
<path d="M29.8579 13.1084V26.5809" stroke="#545454" stroke-width="0.728242"/>
<circle cx="6.91875" cy="17.1136" r="1.27442" stroke="#545454" stroke-width="1.09236"/>
<circle cx="33.1351" cy="17.1136" r="1.27442" stroke="#545454" stroke-width="1.09236"/>
<rect x="12.0165" y="20.7547" width="2.18472" height="3.64121" stroke="#545454" stroke-width="0.728242"/>
<rect x="15.6576" y="20.7547" width="2.18472" height="3.64121" stroke="#545454" stroke-width="0.728242"/>
<rect x="19.2987" y="20.7547" width="2.18472" height="3.64121" stroke="#545454" stroke-width="0.728242"/>
<rect x="22.9398" y="20.7547" width="5.82593" height="3.64121" stroke="#545454" stroke-width="0.728242"/>
<path d="M3.27734 21.1191H10.5598" stroke="#545454" stroke-width="0.728242"/>
<path d="M6.91846 21.1191V26.581" stroke="#545454" stroke-width="0.728242"/>
<path d="M29.8579 20.7549H36.7762" stroke="#545454" stroke-width="0.728242"/>
<path d="M33.4995 20.7549V26.5808" stroke="#545454" stroke-width="0.728242"/>
</g>
<defs>
<clipPath id="clip0_36_8647">
<rect width="40" height="40" fill="white"/>
</clipPath>
</defs>
</svg>
