<svg width="40" height="40" viewBox="0 0 40 40" fill="none" xmlns="http://www.w3.org/2000/svg">
<g clip-path="url(#clip0_36_8645)">
<path d="M0 2.18457H40.7815" stroke="#545454" stroke-width="0.728242"/>
<path d="M0 7.75241C10.9365 7.07386 34.2583 6.61244 40.0533 10.1952" stroke="#545454" stroke-width="0.728242"/>
<path d="M0.728027 25.4646C11.8389 25.6154 35.2592 25.1028 40.0531 21.8467" stroke="#545454" stroke-width="0.728242"/>
<path d="M4.36945 7.28223C3.16225 15.7203 -0.380462 33.214 0.0334346 35.6836" stroke="#545454" stroke-width="0.728242"/>
<path d="M34.9556 8.73926V23.3041" stroke="#545454" stroke-width="0.728242"/>
<path d="M3.64111 12.3799L11.6518 7.28223" stroke="#545454" stroke-width="0.728242"/>
<path d="M2.91309 15.2929L16.7497 7.28223" stroke="#545454" stroke-width="0.728242"/>
<path d="M2.18457 19.6623L21.1189 7.28223" stroke="#545454" stroke-width="0.728242"/>
<path d="M1.45654 22.5753L25.4885 7.28223" stroke="#545454" stroke-width="0.728242"/>
<path d="M2.18457 25.4885L29.1295 8.01074" stroke="#545454" stroke-width="0.728242"/>
<path d="M7.28223 25.1247C15.4143 19.7843 32.0424 9.03055 33.4989 8.73926" stroke="#545454" stroke-width="0.728242"/>
<path d="M12.0161 25.1245C19.1772 20.391 33.7905 10.9238 34.9557 10.9238" stroke="#545454" stroke-width="0.728242"/>
<path d="M16.7495 25.1245C22.2113 21.2406 33.4991 13.4727 34.9556 13.4727" stroke="#545454" stroke-width="0.728242"/>
<path d="M22.5752 24.7594C26.095 21.8464 33.4988 16.0205 34.9553 16.0205" stroke="#545454" stroke-width="0.728242"/>
<path d="M26.9448 24.3965C28.7654 22.6973 32.9164 19.2988 34.9555 19.2988" stroke="#545454" stroke-width="0.728242"/>
<path d="M32.043 23.668C32.5285 23.0611 33.7907 21.7017 34.9559 21.1191" stroke="#545454" stroke-width="0.728242"/>
<path d="M3.64111 10.9234L8.01056 7.28223" stroke="#545454" stroke-width="0.728242"/>
<rect x="33.8631" y="25.8534" width="5.09769" height="2.18472" rx="0.364121" stroke="#545454" stroke-width="0.728242"/>
<path d="M34.9556 9.10352L40.0533 16.3859" stroke="#545454" stroke-width="0.728242"/>
</g>
<defs>
<clipPath id="clip0_36_8645">
<rect width="40" height="40" fill="white"/>
</clipPath>
</defs>
</svg>
