<svg width="40" height="40" viewBox="0 0 40 40" fill="none" xmlns="http://www.w3.org/2000/svg">
<g clip-path="url(#clip0_36_8646)">
<path d="M7.72315 6.91783H13.8036C14.1067 6.91783 14.2771 7.26641 14.091 7.50557L7.85728 15.5162C7.78829 15.6049 7.68225 15.6567 7.56992 15.6567H1.48946C1.18641 15.6567 1.01598 15.3082 1.20209 15.069L7.43579 7.05833C7.50478 6.96968 7.61082 6.91783 7.72315 6.91783Z" stroke="#545454" stroke-width="0.728242"/>
<path d="M14.6185 6.91783H21.0427C21.3496 6.91783 21.5189 7.27417 21.325 7.51203L14.7944 15.5227C14.7253 15.6075 14.6216 15.6567 14.5122 15.6567H8.08795C7.78106 15.6567 7.61182 15.3004 7.80572 15.0625L14.3363 7.05188C14.4054 6.96705 14.509 6.91783 14.6185 6.91783Z" stroke="#545454" stroke-width="0.728242"/>
<path d="M21.5601 6.91783H27.6405C27.9436 6.91783 28.114 7.26641 27.9279 7.50557L21.6942 15.5162C21.6252 15.6049 21.5192 15.6567 21.4068 15.6567H15.3264C15.0233 15.6567 14.8529 15.3082 15.039 15.069L21.2727 7.05833C21.3417 6.96968 21.4477 6.91783 21.5601 6.91783Z" stroke="#545454" stroke-width="0.728242"/>
<path d="M12.2399 14.2411H12.939V12.3841L12.3492 12.6987L12.1438 12.2661L13.0789 11.768H13.4896V14.2411H14.145V14.7393H12.2399V14.2411Z" fill="#545454"/>
<path d="M19.3299 14.3154C19.3911 14.1989 19.4697 14.0911 19.5658 13.9921C19.6649 13.893 19.7683 13.8013 19.8761 13.7168C19.9868 13.6294 20.0975 13.5464 20.2082 13.4677C20.3218 13.3862 20.4223 13.3061 20.5096 13.2274C20.5999 13.1459 20.6728 13.0628 20.7281 12.9784C20.7864 12.8939 20.8155 12.8021 20.8155 12.7031C20.8155 12.639 20.8053 12.5778 20.7849 12.5196C20.7674 12.4613 20.7383 12.4103 20.6975 12.3666C20.6567 12.323 20.6029 12.288 20.5359 12.2618C20.4718 12.2356 20.3931 12.2225 20.2999 12.2225C20.163 12.2225 20.0509 12.2574 19.9635 12.3273C19.8761 12.3972 19.812 12.4948 19.7712 12.6201L19.343 12.3841C19.3692 12.3084 19.4071 12.2312 19.4566 12.1525C19.509 12.071 19.5746 11.9982 19.6532 11.9341C19.7319 11.8671 19.8266 11.8132 19.9372 11.7724C20.0479 11.7287 20.1776 11.7069 20.3261 11.7069C20.4922 11.7069 20.6393 11.7316 20.7674 11.7811C20.8985 11.8307 21.0078 11.8991 21.0951 11.9865C21.1855 12.0739 21.2539 12.1758 21.3005 12.2924C21.3471 12.4089 21.3704 12.5341 21.3704 12.6681C21.3704 12.8138 21.3442 12.9449 21.2918 13.0614C21.2393 13.1779 21.1723 13.2842 21.0908 13.3804C21.0121 13.4736 20.9218 13.5595 20.8199 13.6382C20.7208 13.7139 20.6218 13.7867 20.5228 13.8566C20.4266 13.9236 20.3378 13.9892 20.2562 14.0533C20.1747 14.1144 20.1106 14.1771 20.064 14.2411H21.4272V14.7393H19.3299V14.3154Z" fill="#545454"/>
<path d="M32.7158 12.7082L33.052 12.8481L32.7158 12.7082ZM30.3786 31.762L30.0782 31.9676L30.3786 31.762ZM32.5257 32.447L32.6 32.0905L32.5257 32.447ZM38.4486 33.6809L38.5228 33.3244L38.4486 33.6809ZM39.3123 6.54749L38.9492 6.52042L39.3123 6.54749ZM39.6754 6.57455C39.6849 6.44774 39.6897 6.3197 39.6897 6.1906H38.9614C38.9614 6.30162 38.9573 6.41161 38.9492 6.52042L39.6754 6.57455ZM39.6898 32.043V6.56138H38.9615V32.043H39.6898ZM38.9612 32.0433V32.968H39.6894V32.0433H38.9612ZM38.5228 33.3244L32.6 32.0905L32.4514 32.8034L38.3743 34.0374L38.5228 33.3244ZM32.5673 32.4071H32.7714V31.6788H32.5673V32.4071ZM30.9365 32.407H32.7714V31.6787H30.9365V32.407ZM32.3797 12.5683C31.2112 15.3756 29.9177 19.1435 29.2682 22.732C28.9434 24.5263 28.7774 26.2876 28.8734 27.868C28.9692 29.445 29.3276 30.8709 30.0782 31.9676L30.6791 31.5563C30.0311 30.6093 29.6918 29.3298 29.6003 27.8238C29.509 26.3211 29.6662 24.6217 29.9848 22.8617C30.6219 19.3417 31.8957 15.6263 33.052 12.8481L32.3797 12.5683ZM32.4074 11.0468V12.4284H33.1356V11.0468H32.4074ZM29.4943 6.1906C29.4943 8.12588 30.5728 9.80872 32.1599 10.6718L32.5078 10.032C31.1457 9.2913 30.2225 7.8485 30.2225 6.1906H29.4943ZM34.592 1.09291C31.7766 1.09291 29.4943 3.37522 29.4943 6.1906H30.2225C30.2225 3.77742 32.1788 1.82115 34.592 1.82115V1.09291ZM39.6897 6.1906C39.6897 3.37522 37.4073 1.09291 34.592 1.09291V1.82115C37.0051 1.82115 38.9614 3.77742 38.9614 6.1906H39.6897ZM33.052 12.8481C33.1078 12.7139 33.1356 12.5726 33.1356 12.4284H32.4074C32.4074 12.4777 32.3981 12.5239 32.3797 12.5683L33.052 12.8481ZM30.9365 31.6787C30.82 31.6787 30.7279 31.6276 30.6791 31.5563L30.0782 31.9676C30.2793 32.2615 30.6106 32.407 30.9365 32.407V31.6787ZM33.1356 32.0429C33.1356 31.8417 32.9725 31.6787 32.7714 31.6787V32.407C32.5704 32.407 32.4074 32.244 32.4074 32.0429H33.1356ZM32.7714 32.4071C32.9725 32.4071 33.1356 32.2441 33.1356 32.0429H32.4074C32.4074 31.8417 32.5705 31.6788 32.7714 31.6788V32.4071ZM32.6 32.0905C32.6316 32.0971 32.6724 32.1201 32.7001 32.1621C32.7244 32.1989 32.7293 32.2357 32.7265 32.2635C32.7236 32.2913 32.7113 32.3263 32.68 32.3574C32.6443 32.3929 32.5996 32.4071 32.5673 32.4071V31.6788C31.8837 31.6788 31.7822 32.664 32.4514 32.8034L32.6 32.0905ZM39.3255 31.679C39.1243 31.679 38.9612 31.8421 38.9612 32.0433H39.6894C39.6894 32.2443 39.5265 32.4073 39.3255 32.4073V31.679ZM38.9615 32.043C38.9615 31.842 39.1245 31.679 39.3255 31.679V32.4073C39.5267 32.4073 39.6898 32.2442 39.6898 32.043H38.9615ZM39.319 6.91881C39.1216 6.91881 38.9615 6.75879 38.9615 6.56138H39.6898C39.6898 6.35657 39.5237 6.19057 39.319 6.19057V6.91881ZM38.9612 32.968C38.9612 33.1989 38.7489 33.3716 38.5228 33.3244L38.3743 34.0374C39.0526 34.1787 39.6894 33.6609 39.6894 32.968H38.9612ZM33.1356 11.0468C33.1356 10.5992 32.8643 10.2259 32.5078 10.032L32.1599 10.6718C32.3199 10.7587 32.4074 10.9065 32.4074 11.0468H33.1356ZM38.9492 6.52042C38.9332 6.73516 39.103 6.91881 39.319 6.91881V6.19057C39.5272 6.19057 39.6908 6.36759 39.6754 6.57455L38.9492 6.52042Z" fill="#545454"/>
<path d="M17.0307 32.3738C20.7805 31.1996 32.7441 33.4186 39.1004 34.8574C39.5773 34.9654 39.8058 35.5042 39.5602 35.9271L37.8014 38.9561C37.669 39.1841 37.4295 39.3229 37.1658 39.3186C28.9456 39.1852 13.0671 38.8567 12.0972 38.553C10.8638 38.1668 12.0972 33.9186 17.0307 32.3738Z" stroke="#545454" stroke-width="0.728242"/>
</g>
<defs>
<clipPath id="clip0_36_8646">
<rect width="40" height="40" fill="white"/>
</clipPath>
</defs>
</svg>
